<?xml version="1.0" encoding="iso-8859-1"?>
<!-- Uploaded to: SVG Repo, www.svgrepo.com, Generator: SVG Repo Mixer Tools -->
<!DOCTYPE svg PUBLIC "-//W3C//DTD SVG 1.1//EN" "http://www.w3.org/Graphics/SVG/1.1/DTD/svg11.dtd">
<svg fill="#ffffff" height="30px" width="30px" version="1.1" id="Capa_1" xmlns="http://www.w3.org/2000/svg" xmlns:xlink="http://www.w3.org/1999/xlink" 
	 viewBox="0 0 312.922 312.922" xml:space="preserve">
<g>
	<path d="M110.695,62.814c2.953,1.618,4.625,3.604,5.113,6.071c1.328,6.711-4.854,16.307-7.326,19.413
		c-2.607,3.215-2.117,7.95,1.094,10.557c1.332,1.081,3.01,1.676,4.723,1.676c2.273,0,4.396-1.012,5.824-2.773
		c2.238-2.755,13.254-17.236,10.408-31.747c-1.357-6.912-5.721-12.566-12.623-16.351c-2.961-1.623-4.635-3.608-5.119-6.07
		c-1.311-6.672,4.857-16.197,7.33-19.287c2.604-3.205,2.121-7.935-1.078-10.547c-1.336-1.088-3.018-1.687-4.738-1.687
		c-2.264,0-4.381,1.005-5.813,2.758c-2.236,2.74-13.248,17.142-10.426,31.619C99.412,53.361,103.779,59.021,110.695,62.814z"/>
	<path d="M160.438,77.981c2.953,1.619,4.625,3.605,5.113,6.073c1.328,6.711-4.852,16.306-7.324,19.411
		c-1.264,1.556-1.846,3.51-1.641,5.502c0.205,1.996,1.176,3.791,2.727,5.05c1.332,1.084,3.012,1.681,4.729,1.681
		c2.271,0,4.395-1.01,5.824-2.773c2.238-2.756,13.254-17.239,10.408-31.746c-1.356-6.912-5.721-12.566-12.625-16.352
		c-2.959-1.623-4.633-3.607-5.115-6.069c-1.313-6.672,4.855-16.197,7.328-19.288c2.604-3.205,2.121-7.935-1.078-10.546
		c-1.336-1.088-3.018-1.687-4.736-1.687c-2.266,0-4.385,1.006-5.813,2.757c-2.236,2.74-13.25,17.139-10.428,31.62
		C149.154,68.529,153.521,74.188,160.438,77.981z"/>
	<path d="M281.422,158.527c-1.172,0-2.355,0.075-3.619,0.229c-1.512,0.182-3.016-0.328-4.1-1.39
		c-1.084-1.061-1.629-2.558-1.478-4.068c0.305-3.08,0.514-6.203,0.621-9.333H0c1.459,42.432,21.43,80.11,51.861,104.802
		c-24.973,5.259-36.629,12.4-36.629,22.396c0,10.314,12.408,17.588,39.047,22.892c22.012,4.383,51.184,6.797,82.143,6.797
		c30.959,0,60.131-2.414,82.143-6.797c26.641-5.304,39.047-12.579,39.047-22.892c0-9.983-11.627-17.119-36.533-22.376
		c11.336-9.203,21.342-20.317,29.531-33.108c0.844-1.318,2.256-2.165,3.816-2.288c1.568-0.119,3.088,0.491,4.129,1.659
		c6.018,6.757,14.139,10.477,22.867,10.477c17.369,0,31.5-15.027,31.5-33.5C312.922,173.556,298.791,158.527,281.422,158.527z
		 M243.121,271.163c-2.557,2.14-11.098,6.442-31.715,10.119c-20.576,3.67-47.205,5.691-74.984,5.691
		c-27.777,0-54.408-2.021-74.982-5.691c-20.617-3.677-29.158-7.979-31.715-10.119c2.557-2.14,11.098-6.442,31.715-10.119
		c2.088-0.373,4.252-0.723,6.459-1.062c20.152,12.043,43.564,18.953,68.523,18.953c24.553,0,48.129-6.699,68.637-18.935
		c2.168,0.333,4.295,0.678,6.348,1.044C232.023,264.721,240.564,269.023,243.121,271.163z M290.795,196.614
		c-2.973,6.738-9.617,10.331-14.838,8.027s-7.043-9.632-4.07-16.37c2.971-6.736,9.613-10.331,14.836-8.027
		C291.943,182.549,293.766,189.878,290.795,196.614z"/>
</g>
</svg>